<?xml version="1.0" encoding="UTF-8" standalone="no"?>
<!DOCTYPE svg PUBLIC "-//W3C//DTD SVG 1.1//EN"
 "http://www.w3.org/Graphics/SVG/1.1/DTD/svg11.dtd">
<!-- Generated by graphviz version 2.40.1 (20161225.0304)
 -->
<!-- Title: dependencies Pages: 1 -->
<svg width="1764pt" height="284pt"
 viewBox="0.00 0.00 1764.00 284.00" xmlns="http://www.w3.org/2000/svg" xmlns:xlink="http://www.w3.org/1999/xlink">
<g id="graph0" class="graph" transform="scale(1 1) rotate(0) translate(4 280)">
<title>dependencies</title>
<polygon fill="#ffffff" stroke="transparent" points="-4,4 -4,-280 1760,-280 1760,4 -4,4"/>
<text text-anchor="start" x="857.0091" y="-42.4" font-family="sans-serif" font-weight="bold" font-size="14.00" fill="#000000">Legend</text>
<polygon fill="#ffffb3" stroke="transparent" points="644,-10 644,-30 664,-30 664,-10 644,-10"/>
<text text-anchor="start" x="667.629" y="-15.4" font-family="sans-serif" font-size="14.00" fill="#000000"> &#160;Declarations</text>
<polygon fill="#8dd3c7" stroke="transparent" points="757,-10 757,-30 777,-30 777,-10 757,-10"/>
<text text-anchor="start" x="780.7251" y="-15.4" font-family="sans-serif" font-size="14.00" fill="#000000"> &#160;Module</text>
<polygon fill="#80b1d3" stroke="transparent" points="843,-10 843,-30 863,-30 863,-10 843,-10"/>
<text text-anchor="start" x="866.7812" y="-15.4" font-family="sans-serif" font-size="14.00" fill="#000000"> &#160;Bootstrap</text>
<polygon fill="#fdb462" stroke="transparent" points="940,-10 940,-30 960,-30 960,-10 940,-10"/>
<text text-anchor="start" x="963.6732" y="-15.4" font-family="sans-serif" font-size="14.00" fill="#000000"> &#160;Providers</text>
<polygon fill="#fb8072" stroke="transparent" points="1036,-10 1036,-30 1056,-30 1056,-10 1036,-10"/>
<text text-anchor="start" x="1059.7258" y="-15.4" font-family="sans-serif" font-size="14.00" fill="#000000"> &#160;Exports</text>
<g id="clust1" class="cluster">
<title>cluster_AppModule</title>
<polygon fill="none" stroke="#000000" stroke-dasharray="1,5" points="8,-70 8,-268 1748,-268 1748,-70 8,-70"/>
</g>
<g id="clust2" class="cluster">
<title>cluster_AppModule_declarations</title>
<polygon fill="none" stroke="#000000" points="313,-78 313,-130 1740,-130 1740,-78 313,-78"/>
</g>
<g id="clust15" class="cluster">
<title>cluster_AppModule_bootstrap</title>
<polygon fill="none" stroke="#000000" points="907,-208 907,-260 1031,-260 1031,-208 907,-208"/>
</g>
<g id="clust16" class="cluster">
<title>cluster_AppModule_providers</title>
<polygon fill="none" stroke="#000000" points="16,-78 16,-130 305,-130 305,-78 16,-78"/>
</g>
<!-- AppComponent -->
<g id="node1" class="node">
<title>AppComponent</title>
<polygon fill="#ffffb3" stroke="#000000" points="1731.9399,-122 1626.0601,-122 1626.0601,-86 1731.9399,-86 1731.9399,-122"/>
<text text-anchor="middle" x="1679" y="-99.8" font-family="Times,serif" font-size="14.00" fill="#000000">AppComponent</text>
</g>
<!-- AppModule -->
<g id="node11" class="node">
<title>AppModule</title>
<polygon fill="#8dd3c7" stroke="#000000" points="1010.6571,-187 1007.6571,-191 986.6571,-191 983.6571,-187 927.3429,-187 927.3429,-151 1010.6571,-151 1010.6571,-187"/>
<text text-anchor="middle" x="969" y="-164.8" font-family="Times,serif" font-size="14.00" fill="#000000">AppModule</text>
</g>
<!-- AppComponent&#45;&gt;AppModule -->
<g id="edge1" class="edge">
<title>AppComponent&#45;&gt;AppModule</title>
<path fill="none" stroke="#000000" d="M1679,-122.2479C1679,-145.0179 1679,-181 1679,-181 1679,-181 1020.763,-181 1020.763,-181"/>
<polygon fill="#000000" stroke="#000000" points="1020.7631,-177.5001 1010.763,-181 1020.763,-184.5001 1020.7631,-177.5001"/>
</g>
<!-- FilterPipe -->
<g id="node2" class="node">
<title>FilterPipe</title>
<polygon fill="#ffffb3" stroke="#000000" points="1608.7177,-122 1537.2823,-122 1537.2823,-86 1608.7177,-86 1608.7177,-122"/>
<text text-anchor="middle" x="1573" y="-99.8" font-family="Times,serif" font-size="14.00" fill="#000000">FilterPipe</text>
</g>
<!-- FilterPipe&#45;&gt;AppModule -->
<g id="edge2" class="edge">
<title>FilterPipe&#45;&gt;AppModule</title>
<path fill="none" stroke="#000000" d="M1573,-122.2843C1573,-143.3211 1573,-175 1573,-175 1573,-175 1020.9926,-175 1020.9926,-175"/>
<polygon fill="#000000" stroke="#000000" points="1020.9926,-171.5001 1010.9926,-175 1020.9925,-178.5001 1020.9926,-171.5001"/>
</g>
<!-- HighlightStudentDirective -->
<g id="node3" class="node">
<title>HighlightStudentDirective</title>
<polygon fill="#ffffb3" stroke="#000000" points="1519.0309,-122 1354.9691,-122 1354.9691,-86 1519.0309,-86 1519.0309,-122"/>
<text text-anchor="middle" x="1437" y="-99.8" font-family="Times,serif" font-size="14.00" fill="#000000">HighlightStudentDirective</text>
</g>
<!-- HighlightStudentDirective&#45;&gt;AppModule -->
<g id="edge3" class="edge">
<title>HighlightStudentDirective&#45;&gt;AppModule</title>
<path fill="none" stroke="#000000" d="M1437,-122.1061C1437,-141.3391 1437,-169 1437,-169 1437,-169 1020.9437,-169 1020.9437,-169"/>
<polygon fill="#000000" stroke="#000000" points="1020.9438,-165.5001 1010.9437,-169 1020.9437,-172.5001 1020.9438,-165.5001"/>
</g>
<!-- HomeComponent -->
<g id="node4" class="node">
<title>HomeComponent</title>
<polygon fill="#ffffb3" stroke="#000000" points="1336.5451,-122 1221.4549,-122 1221.4549,-86 1336.5451,-86 1336.5451,-122"/>
<text text-anchor="middle" x="1279" y="-99.8" font-family="Times,serif" font-size="14.00" fill="#000000">HomeComponent</text>
</g>
<!-- HomeComponent&#45;&gt;AppModule -->
<g id="edge4" class="edge">
<title>HomeComponent&#45;&gt;AppModule</title>
<path fill="none" stroke="#000000" d="M1279,-122.0225C1279,-139.3734 1279,-163 1279,-163 1279,-163 1020.808,-163 1020.808,-163"/>
<polygon fill="#000000" stroke="#000000" points="1020.808,-159.5001 1010.808,-163 1020.8079,-166.5001 1020.808,-159.5001"/>
</g>
<!-- LoginComponent -->
<g id="node5" class="node">
<title>LoginComponent</title>
<polygon fill="#ffffb3" stroke="#000000" points="1203.2758,-122 1088.7242,-122 1088.7242,-86 1203.2758,-86 1203.2758,-122"/>
<text text-anchor="middle" x="1146" y="-99.8" font-family="Times,serif" font-size="14.00" fill="#000000">LoginComponent</text>
</g>
<!-- LoginComponent&#45;&gt;AppModule -->
<g id="edge5" class="edge">
<title>LoginComponent&#45;&gt;AppModule</title>
<path fill="none" stroke="#000000" d="M1146,-122.2396C1146,-137.5706 1146,-157 1146,-157 1146,-157 1020.9465,-157 1020.9465,-157"/>
<polygon fill="#000000" stroke="#000000" points="1020.9466,-153.5001 1010.9465,-157 1020.9465,-160.5001 1020.9466,-153.5001"/>
</g>
<!-- PhonePipe -->
<g id="node6" class="node">
<title>PhonePipe</title>
<polygon fill="#ffffb3" stroke="#000000" points="1070.8851,-122 995.1149,-122 995.1149,-86 1070.8851,-86 1070.8851,-122"/>
<text text-anchor="middle" x="1033" y="-99.8" font-family="Times,serif" font-size="14.00" fill="#000000">PhonePipe</text>
</g>
<!-- PhonePipe&#45;&gt;AppModule -->
<g id="edge6" class="edge">
<title>PhonePipe&#45;&gt;AppModule</title>
<path fill="none" stroke="#000000" d="M1002.9429,-122.1061C1002.9429,-122.1061 1002.9429,-140.991 1002.9429,-140.991"/>
<polygon fill="#000000" stroke="#000000" points="999.4429,-140.9909 1002.9429,-150.991 1006.4429,-140.991 999.4429,-140.9909"/>
</g>
<!-- ReferencesComponent -->
<g id="node7" class="node">
<title>ReferencesComponent</title>
<polygon fill="#ffffb3" stroke="#000000" points="976.5086,-122 833.4914,-122 833.4914,-86 976.5086,-86 976.5086,-122"/>
<text text-anchor="middle" x="905" y="-99.8" font-family="Times,serif" font-size="14.00" fill="#000000">ReferencesComponent</text>
</g>
<!-- ReferencesComponent&#45;&gt;AppModule -->
<g id="edge7" class="edge">
<title>ReferencesComponent&#45;&gt;AppModule</title>
<path fill="none" stroke="#000000" d="M951.9629,-122.1061C951.9629,-122.1061 951.9629,-140.991 951.9629,-140.991"/>
<polygon fill="#000000" stroke="#000000" points="948.4629,-140.9909 951.9629,-150.991 955.4629,-140.991 948.4629,-140.9909"/>
</g>
<!-- StudentAddComponent -->
<g id="node8" class="node">
<title>StudentAddComponent</title>
<polygon fill="#ffffb3" stroke="#000000" points="815.2176,-122 666.7824,-122 666.7824,-86 815.2176,-86 815.2176,-122"/>
<text text-anchor="middle" x="741" y="-99.8" font-family="Times,serif" font-size="14.00" fill="#000000">StudentAddComponent</text>
</g>
<!-- StudentAddComponent&#45;&gt;AppModule -->
<g id="edge8" class="edge">
<title>StudentAddComponent&#45;&gt;AppModule</title>
<path fill="none" stroke="#000000" d="M741,-122.2396C741,-137.5706 741,-157 741,-157 741,-157 917.1813,-157 917.1813,-157"/>
<polygon fill="#000000" stroke="#000000" points="917.1813,-160.5001 927.1813,-157 917.1813,-153.5001 917.1813,-160.5001"/>
</g>
<!-- StudentDetailsComponent -->
<g id="node9" class="node">
<title>StudentDetailsComponent</title>
<polygon fill="#ffffb3" stroke="#000000" points="648.7632,-122 485.2368,-122 485.2368,-86 648.7632,-86 648.7632,-122"/>
<text text-anchor="middle" x="567" y="-99.8" font-family="Times,serif" font-size="14.00" fill="#000000">StudentDetailsComponent</text>
</g>
<!-- StudentDetailsComponent&#45;&gt;AppModule -->
<g id="edge9" class="edge">
<title>StudentDetailsComponent&#45;&gt;AppModule</title>
<path fill="none" stroke="#000000" d="M567,-122.0225C567,-139.3734 567,-163 567,-163 567,-163 917.1166,-163 917.1166,-163"/>
<polygon fill="#000000" stroke="#000000" points="917.1166,-166.5001 927.1166,-163 917.1166,-159.5001 917.1166,-166.5001"/>
</g>
<!-- StudentListComponent -->
<g id="node10" class="node">
<title>StudentListComponent</title>
<polygon fill="#ffffb3" stroke="#000000" points="466.8892,-122 321.1108,-122 321.1108,-86 466.8892,-86 466.8892,-122"/>
<text text-anchor="middle" x="394" y="-99.8" font-family="Times,serif" font-size="14.00" fill="#000000">StudentListComponent</text>
</g>
<!-- StudentListComponent&#45;&gt;AppModule -->
<g id="edge10" class="edge">
<title>StudentListComponent&#45;&gt;AppModule</title>
<path fill="none" stroke="#000000" d="M394,-122.1061C394,-141.3391 394,-169 394,-169 394,-169 917.1842,-169 917.1842,-169"/>
<polygon fill="#000000" stroke="#000000" points="917.1843,-172.5001 927.1842,-169 917.1842,-165.5001 917.1843,-172.5001"/>
</g>
<!-- AppComponent  -->
<g id="node12" class="node">
<title>AppComponent </title>
<polygon fill="#80b1d3" stroke="#000000" points="1023.439,-252 914.561,-252 914.561,-216 1023.439,-216 1023.439,-252"/>
<text text-anchor="middle" x="969" y="-229.8" font-family="Times,serif" font-size="14.00" fill="#000000">AppComponent </text>
</g>
<!-- AppModule&#45;&gt;AppComponent  -->
<g id="edge11" class="edge">
<title>AppModule&#45;&gt;AppComponent </title>
<path fill="none" stroke="#000000" stroke-dasharray="1,5" d="M969,-187.1061C969,-187.1061 969,-205.991 969,-205.991"/>
<polygon fill="#000000" stroke="#000000" points="965.5001,-205.9909 969,-215.991 972.5001,-205.991 965.5001,-205.9909"/>
</g>
<!-- StudentService -->
<g id="node13" class="node">
<title>StudentService</title>
<ellipse fill="#fdb462" stroke="#000000" cx="228" cy="-104" rx="69.4993" ry="18"/>
<text text-anchor="middle" x="228" y="-99.8" font-family="Times,serif" font-size="14.00" fill="#000000">StudentService</text>
</g>
<!-- StudentService&#45;&gt;AppModule -->
<g id="edge12" class="edge">
<title>StudentService&#45;&gt;AppModule</title>
<path fill="none" stroke="#000000" d="M228,-122.2843C228,-143.3211 228,-175 228,-175 228,-175 917.3055,-175 917.3055,-175"/>
<polygon fill="#000000" stroke="#000000" points="917.3056,-178.5001 927.3055,-175 917.3055,-171.5001 917.3056,-178.5001"/>
</g>
<!-- UserService -->
<g id="node14" class="node">
<title>UserService</title>
<ellipse fill="#fdb462" stroke="#000000" cx="82" cy="-104" rx="58.4415" ry="18"/>
<text text-anchor="middle" x="82" y="-99.8" font-family="Times,serif" font-size="14.00" fill="#000000">UserService</text>
</g>
<!-- UserService&#45;&gt;AppModule -->
<g id="edge13" class="edge">
<title>UserService&#45;&gt;AppModule</title>
<path fill="none" stroke="#000000" d="M82,-122.2479C82,-145.0179 82,-181 82,-181 82,-181 917.1118,-181 917.1118,-181"/>
<polygon fill="#000000" stroke="#000000" points="917.1119,-184.5001 927.1118,-181 917.1118,-177.5001 917.1119,-184.5001"/>
</g>
</g>
</svg>
